<svg viewBox="0 0 500 500" xmlns="http://www.w3.org/2000/svg" width="500" height="500">
  <defs>
    <!-- Background gradient -->
    <radialGradient id="bgGrad" cx="50%" cy="50%" r="50%">
      <stop offset="0%" stop-color="#0a1a2e"/>
      <stop offset="100%" stop-color="#020d1a"/>
    </radialGradient>

    <!-- Outer glow gradient -->
    <radialGradient id="glowGrad" cx="50%" cy="50%" r="50%">
      <stop offset="0%" stop-color="#00c8ff" stop-opacity="0.15"/>
      <stop offset="100%" stop-color="#00c8ff" stop-opacity="0"/>
    </radialGradient>

    <!-- Arc gradient for the gold accent -->
    <linearGradient id="goldGrad" x1="0%" y1="0%" x2="100%" y2="0%">
      <stop offset="0%" stop-color="#f5a623" stop-opacity="0"/>
      <stop offset="30%" stop-color="#f5a623"/>
      <stop offset="70%" stop-color="#ffd700"/>
      <stop offset="100%" stop-color="#f5a623" stop-opacity="0"/>
    </linearGradient>

    <!-- Blueprint grid pattern -->
    <pattern id="grid" width="20" height="20" patternUnits="userSpaceOnUse">
      <path d="M 20 0 L 0 0 0 20" fill="none" stroke="#00c8ff" stroke-width="0.2" stroke-opacity="0.15"/>
    </pattern>

    <!-- Clip for inner ring area -->
    <clipPath id="innerClip">
      <circle cx="250" cy="250" r="145"/>
    </clipPath>

    <!-- Glow filter -->
    <filter id="glow" x="-20%" y="-20%" width="140%" height="140%">
      <feGaussianBlur stdDeviation="3" result="blur"/>
      <feMerge>
        <feMergeNode in="blur"/>
        <feMergeNode in="SourceGraphic"/>
      </feMerge>
    </filter>

    <!-- Strong glow filter -->
    <filter id="strongGlow" x="-30%" y="-30%" width="160%" height="160%">
      <feGaussianBlur stdDeviation="6" result="blur"/>
      <feMerge>
        <feMergeNode in="blur"/>
        <feMergeNode in="SourceGraphic"/>
      </feMerge>
    </filter>

    <!-- Text glow -->
    <filter id="textGlow" x="-10%" y="-30%" width="120%" height="160%">
      <feGaussianBlur stdDeviation="4" result="blur"/>
      <feMerge>
        <feMergeNode in="blur"/>
        <feMergeNode in="blur"/>
        <feMergeNode in="SourceGraphic"/>
      </feMerge>
    </filter>

    <!-- Inner circuit pattern -->
    <pattern id="circuit" width="40" height="40" patternUnits="userSpaceOnUse">
      <rect width="40" height="40" fill="none"/>
      <path d="M10 0 L10 10 L20 10 M30 0 L30 15 L20 15 L20 10 M0 25 L15 25 L15 30 L25 30 L25 20 M40 20 L30 20" 
            fill="none" stroke="#00c8ff" stroke-width="0.4" stroke-opacity="0.2"/>
      <circle cx="10" cy="10" r="1" fill="#00c8ff" fill-opacity="0.3"/>
      <circle cx="25" cy="30" r="1" fill="#00c8ff" fill-opacity="0.3"/>
    </pattern>
  </defs>

  <!-- Background -->
  <rect width="500" height="500" fill="url(#bgGrad)"/>
  <rect width="500" height="500" fill="url(#grid)"/>

  <!-- Blueprint schematic elements (background) -->
  <!-- Top-left schematic -->
  <g opacity="0.25" stroke="#00c8ff" stroke-width="0.5" fill="none">
    <rect x="20" y="20" width="80" height="50" rx="2"/>
    <line x1="20" y1="35" x2="100" y2="35"/>
    <line x1="60" y1="35" x2="60" y2="70"/>
    <rect x="30" y="40" width="20" height="20" rx="1"/>
    <rect x="65" y="40" width="20" height="20" rx="1"/>
    <circle cx="40" cy="15" r="4"/>
    <line x1="40" y1="19" x2="40" y2="20"/>
  </g>

  <!-- Top-right schematic -->
  <g opacity="0.2" stroke="#00c8ff" stroke-width="0.5" fill="none">
    <rect x="380" y="15" width="100" height="60" rx="2"/>
    <line x1="380" y1="30" x2="480" y2="30"/>
    <line x1="430" y1="15" x2="430" y2="75"/>
    <circle cx="410" cy="50" r="8"/>
    <circle cx="450" cy="50" r="5"/>
  </g>

  <!-- Bottom-right schematic -->
  <g opacity="0.2" stroke="#00c8ff" stroke-width="0.5" fill="none">
    <rect x="390" y="400" width="90" height="75" rx="2"/>
    <line x1="390" y1="420" x2="480" y2="420"/>
    <rect x="400" y="430" width="30" height="30"/>
    <circle cx="460" cy="445" r="12"/>
  </g>

  <!-- Bottom-left schematic -->
  <g opacity="0.2" stroke="#00c8ff" stroke-width="0.5" fill="none">
    <rect x="15" y="390" width="85" height="80" rx="2"/>
    <line x1="15" y1="415" x2="100" y2="415"/>
    <path d="M30 430 L55 430 L55 455 L80 455"/>
    <circle cx="30" cy="445" r="6"/>
    <rect x="65" y="430" width="20" height="15"/>
  </g>

  <!-- Radial ambient glow -->
  <circle cx="250" cy="250" r="220" fill="url(#glowGrad)"/>

  <!-- ======== OUTER DECORATIVE RING ======== -->
  <!-- Outermost thin ring -->
  <circle cx="250" cy="250" r="218" fill="none" stroke="#00c8ff" stroke-width="0.5" stroke-opacity="0.3"/>
  <circle cx="250" cy="250" r="215" fill="none" stroke="#00c8ff" stroke-width="0.3" stroke-opacity="0.2"/>

  <!-- Outer main ring -->
  <circle cx="250" cy="250" r="205" fill="none" stroke="#00c8ff" stroke-width="1.5" stroke-opacity="0.6" filter="url(#glow)"/>

  <!-- Tick marks on outer ring - major (every 30deg = 12 marks) -->
  <g id="outerTicks" stroke="#00c8ff" stroke-opacity="0.7" filter="url(#glow)">
    <!-- Generated as 72 small ticks every 5 degrees -->
    <g transform="rotate(0,250,250)">   <line x1="250" y1="42" x2="250" y2="55" stroke-width="1.5"/></g>
    <g transform="rotate(5,250,250)">   <line x1="250" y1="46" x2="250" y2="52" stroke-width="0.5"/></g>
    <g transform="rotate(10,250,250)">  <line x1="250" y1="46" x2="250" y2="52" stroke-width="0.5"/></g>
    <g transform="rotate(15,250,250)">  <line x1="250" y1="44" x2="250" y2="55" stroke-width="1"/></g>
    <g transform="rotate(20,250,250)">  <line x1="250" y1="46" x2="250" y2="52" stroke-width="0.5"/></g>
    <g transform="rotate(25,250,250)">  <line x1="250" y1="46" x2="250" y2="52" stroke-width="0.5"/></g>
    <g transform="rotate(30,250,250)">  <line x1="250" y1="42" x2="250" y2="55" stroke-width="1.5"/></g>
    <g transform="rotate(35,250,250)">  <line x1="250" y1="46" x2="250" y2="52" stroke-width="0.5"/></g>
    <g transform="rotate(40,250,250)">  <line x1="250" y1="46" x2="250" y2="52" stroke-width="0.5"/></g>
    <g transform="rotate(45,250,250)">  <line x1="250" y1="44" x2="250" y2="55" stroke-width="1"/></g>
    <g transform="rotate(50,250,250)">  <line x1="250" y1="46" x2="250" y2="52" stroke-width="0.5"/></g>
    <g transform="rotate(55,250,250)">  <line x1="250" y1="46" x2="250" y2="52" stroke-width="0.5"/></g>
    <g transform="rotate(60,250,250)">  <line x1="250" y1="42" x2="250" y2="55" stroke-width="1.5"/></g>
    <g transform="rotate(65,250,250)">  <line x1="250" y1="46" x2="250" y2="52" stroke-width="0.5"/></g>
    <g transform="rotate(70,250,250)">  <line x1="250" y1="46" x2="250" y2="52" stroke-width="0.5"/></g>
    <g transform="rotate(75,250,250)">  <line x1="250" y1="44" x2="250" y2="55" stroke-width="1"/></g>
    <g transform="rotate(80,250,250)">  <line x1="250" y1="46" x2="250" y2="52" stroke-width="0.5"/></g>
    <g transform="rotate(85,250,250)">  <line x1="250" y1="46" x2="250" y2="52" stroke-width="0.5"/></g>
    <g transform="rotate(90,250,250)">  <line x1="250" y1="42" x2="250" y2="55" stroke-width="1.5"/></g>
    <g transform="rotate(95,250,250)">  <line x1="250" y1="46" x2="250" y2="52" stroke-width="0.5"/></g>
    <g transform="rotate(100,250,250)"> <line x1="250" y1="46" x2="250" y2="52" stroke-width="0.5"/></g>
    <g transform="rotate(105,250,250)"> <line x1="250" y1="44" x2="250" y2="55" stroke-width="1"/></g>
    <g transform="rotate(110,250,250)"> <line x1="250" y1="46" x2="250" y2="52" stroke-width="0.5"/></g>
    <g transform="rotate(115,250,250)"> <line x1="250" y1="46" x2="250" y2="52" stroke-width="0.5"/></g>
    <g transform="rotate(120,250,250)"> <line x1="250" y1="42" x2="250" y2="55" stroke-width="1.5"/></g>
    <g transform="rotate(125,250,250)"> <line x1="250" y1="46" x2="250" y2="52" stroke-width="0.5"/></g>
    <g transform="rotate(130,250,250)"> <line x1="250" y1="46" x2="250" y2="52" stroke-width="0.5"/></g>
    <g transform="rotate(135,250,250)"> <line x1="250" y1="44" x2="250" y2="55" stroke-width="1"/></g>
    <g transform="rotate(140,250,250)"> <line x1="250" y1="46" x2="250" y2="52" stroke-width="0.5"/></g>
    <g transform="rotate(145,250,250)"> <line x1="250" y1="46" x2="250" y2="52" stroke-width="0.5"/></g>
    <g transform="rotate(150,250,250)"> <line x1="250" y1="42" x2="250" y2="55" stroke-width="1.5"/></g>
    <g transform="rotate(155,250,250)"> <line x1="250" y1="46" x2="250" y2="52" stroke-width="0.5"/></g>
    <g transform="rotate(160,250,250)"> <line x1="250" y1="46" x2="250" y2="52" stroke-width="0.5"/></g>
    <g transform="rotate(165,250,250)"> <line x1="250" y1="44" x2="250" y2="55" stroke-width="1"/></g>
    <g transform="rotate(170,250,250)"> <line x1="250" y1="46" x2="250" y2="52" stroke-width="0.5"/></g>
    <g transform="rotate(175,250,250)"> <line x1="250" y1="46" x2="250" y2="52" stroke-width="0.5"/></g>
    <g transform="rotate(180,250,250)"> <line x1="250" y1="42" x2="250" y2="55" stroke-width="1.5"/></g>
    <g transform="rotate(185,250,250)"> <line x1="250" y1="46" x2="250" y2="52" stroke-width="0.5"/></g>
    <g transform="rotate(190,250,250)"> <line x1="250" y1="46" x2="250" y2="52" stroke-width="0.5"/></g>
    <g transform="rotate(195,250,250)"> <line x1="250" y1="44" x2="250" y2="55" stroke-width="1"/></g>
    <g transform="rotate(200,250,250)"> <line x1="250" y1="46" x2="250" y2="52" stroke-width="0.5"/></g>
    <g transform="rotate(205,250,250)"> <line x1="250" y1="46" x2="250" y2="52" stroke-width="0.5"/></g>
    <g transform="rotate(210,250,250)"> <line x1="250" y1="42" x2="250" y2="55" stroke-width="1.5"/></g>
    <g transform="rotate(215,250,250)"> <line x1="250" y1="46" x2="250" y2="52" stroke-width="0.5"/></g>
    <g transform="rotate(220,250,250)"> <line x1="250" y1="46" x2="250" y2="52" stroke-width="0.5"/></g>
    <g transform="rotate(225,250,250)"> <line x1="250" y1="44" x2="250" y2="55" stroke-width="1"/></g>
    <g transform="rotate(230,250,250)"> <line x1="250" y1="46" x2="250" y2="52" stroke-width="0.5"/></g>
    <g transform="rotate(235,250,250)"> <line x1="250" y1="46" x2="250" y2="52" stroke-width="0.5"/></g>
    <g transform="rotate(240,250,250)"> <line x1="250" y1="42" x2="250" y2="55" stroke-width="1.5"/></g>
    <g transform="rotate(245,250,250)"> <line x1="250" y1="46" x2="250" y2="52" stroke-width="0.5"/></g>
    <g transform="rotate(250,250,250)"> <line x1="250" y1="46" x2="250" y2="52" stroke-width="0.5"/></g>
    <g transform="rotate(255,250,250)"> <line x1="250" y1="44" x2="250" y2="55" stroke-width="1"/></g>
    <g transform="rotate(260,250,250)"> <line x1="250" y1="46" x2="250" y2="52" stroke-width="0.5"/></g>
    <g transform="rotate(265,250,250)"> <line x1="250" y1="46" x2="250" y2="52" stroke-width="0.5"/></g>
    <g transform="rotate(270,250,250)"> <line x1="250" y1="42" x2="250" y2="55" stroke-width="1.5"/></g>
    <g transform="rotate(275,250,250)"> <line x1="250" y1="46" x2="250" y2="52" stroke-width="0.5"/></g>
    <g transform="rotate(280,250,250)"> <line x1="250" y1="46" x2="250" y2="52" stroke-width="0.5"/></g>
    <g transform="rotate(285,250,250)"> <line x1="250" y1="44" x2="250" y2="55" stroke-width="1"/></g>
    <g transform="rotate(290,250,250)"> <line x1="250" y1="46" x2="250" y2="52" stroke-width="0.5"/></g>
    <g transform="rotate(295,250,250)"> <line x1="250" y1="46" x2="250" y2="52" stroke-width="0.5"/></g>
    <g transform="rotate(300,250,250)"> <line x1="250" y1="42" x2="250" y2="55" stroke-width="1.5"/></g>
    <g transform="rotate(305,250,250)"> <line x1="250" y1="46" x2="250" y2="52" stroke-width="0.5"/></g>
    <g transform="rotate(310,250,250)"> <line x1="250" y1="46" x2="250" y2="52" stroke-width="0.5"/></g>
    <g transform="rotate(315,250,250)"> <line x1="250" y1="44" x2="250" y2="55" stroke-width="1"/></g>
    <g transform="rotate(320,250,250)"> <line x1="250" y1="46" x2="250" y2="52" stroke-width="0.5"/></g>
    <g transform="rotate(325,250,250)"> <line x1="250" y1="46" x2="250" y2="52" stroke-width="0.5"/></g>
    <g transform="rotate(330,250,250)"> <line x1="250" y1="42" x2="250" y2="55" stroke-width="1.5"/></g>
    <g transform="rotate(335,250,250)"> <line x1="250" y1="46" x2="250" y2="52" stroke-width="0.5"/></g>
    <g transform="rotate(340,250,250)"> <line x1="250" y1="46" x2="250" y2="52" stroke-width="0.5"/></g>
    <g transform="rotate(345,250,250)"> <line x1="250" y1="44" x2="250" y2="55" stroke-width="1"/></g>
    <g transform="rotate(350,250,250)"> <line x1="250" y1="46" x2="250" y2="52" stroke-width="0.5"/></g>
    <g transform="rotate(355,250,250)"> <line x1="250" y1="46" x2="250" y2="52" stroke-width="0.5"/></g>
  </g>

  <!-- ======== MAIN OUTER RING BAND ======== -->
  <!-- Thick outer ring band (the main dark torus) -->
  <circle cx="250" cy="250" r="197" fill="none" stroke="#051525" stroke-width="28"/>
  <circle cx="250" cy="250" r="197" fill="none" stroke="#00c8ff" stroke-width="0.8" stroke-opacity="0.9" filter="url(#glow)"/>
  <circle cx="250" cy="250" r="183" fill="none" stroke="#00c8ff" stroke-width="0.8" stroke-opacity="0.7" filter="url(#glow)"/>

  <!-- Small dots on the outer ring band (decorative nodes) -->
  <g fill="#00c8ff" filter="url(#glow)" opacity="0.9">
    <circle cx="250" cy="53" r="2.5" transform="rotate(0,250,250)"/>
    <circle cx="250" cy="53" r="2.5" transform="rotate(90,250,250)"/>
    <circle cx="250" cy="53" r="2.5" transform="rotate(180,250,250)"/>
    <circle cx="250" cy="53" r="2.5" transform="rotate(270,250,250)"/>
    <!-- Smaller dots -->
    <circle cx="250" cy="53" r="1.5" transform="rotate(45,250,250)"/>
    <circle cx="250" cy="53" r="1.5" transform="rotate(135,250,250)"/>
    <circle cx="250" cy="53" r="1.5" transform="rotate(225,250,250)"/>
    <circle cx="250" cy="53" r="1.5" transform="rotate(315,250,250)"/>
  </g>

  <!-- Gold/amber arc (the progress indicator - top-left quadrant) -->
  <!-- Arc from about 200deg to 290deg -->
  <path d="M 188 100 A 197 197 0 0 1 113 380" 
        fill="none" stroke="url(#goldGrad)" stroke-width="4" stroke-linecap="round" opacity="0.9" filter="url(#glow)"/>

  <!-- ======== INNER RINGS ======== -->
  <!-- Inner ring 1 -->
  <circle cx="250" cy="250" r="168" fill="none" stroke="#00c8ff" stroke-width="0.6" stroke-opacity="0.5"/>

  <!-- Inner ring 2 - medium band -->
  <circle cx="250" cy="250" r="155" fill="none" stroke="#051525" stroke-width="16"/>
  <circle cx="250" cy="250" r="163" fill="none" stroke="#00c8ff" stroke-width="0.5" stroke-opacity="0.4"/>
  <circle cx="250" cy="250" r="147" fill="none" stroke="#00c8ff" stroke-width="0.5" stroke-opacity="0.4"/>

  <!-- Medium tick marks on inner ring -->
  <g stroke="#00c8ff" stroke-opacity="0.5" stroke-width="0.5">
    <g transform="rotate(0,250,250)">   <line x1="250" y1="88" x2="250" y2="96"/></g>
    <g transform="rotate(10,250,250)">  <line x1="250" y1="88" x2="250" y2="93"/></g>
    <g transform="rotate(20,250,250)">  <line x1="250" y1="88" x2="250" y2="93"/></g>
    <g transform="rotate(30,250,250)">  <line x1="250" y1="88" x2="250" y2="96"/></g>
    <g transform="rotate(40,250,250)">  <line x1="250" y1="88" x2="250" y2="93"/></g>
    <g transform="rotate(50,250,250)">  <line x1="250" y1="88" x2="250" y2="93"/></g>
    <g transform="rotate(60,250,250)">  <line x1="250" y1="88" x2="250" y2="96"/></g>
    <g transform="rotate(70,250,250)">  <line x1="250" y1="88" x2="250" y2="93"/></g>
    <g transform="rotate(80,250,250)">  <line x1="250" y1="88" x2="250" y2="93"/></g>
    <g transform="rotate(90,250,250)">  <line x1="250" y1="88" x2="250" y2="96"/></g>
    <g transform="rotate(100,250,250)"> <line x1="250" y1="88" x2="250" y2="93"/></g>
    <g transform="rotate(110,250,250)"> <line x1="250" y1="88" x2="250" y2="93"/></g>
    <g transform="rotate(120,250,250)"> <line x1="250" y1="88" x2="250" y2="96"/></g>
    <g transform="rotate(130,250,250)"> <line x1="250" y1="88" x2="250" y2="93"/></g>
    <g transform="rotate(140,250,250)"> <line x1="250" y1="88" x2="250" y2="93"/></g>
    <g transform="rotate(150,250,250)"> <line x1="250" y1="88" x2="250" y2="96"/></g>
    <g transform="rotate(160,250,250)"> <line x1="250" y1="88" x2="250" y2="93"/></g>
    <g transform="rotate(170,250,250)"> <line x1="250" y1="88" x2="250" y2="93"/></g>
    <g transform="rotate(180,250,250)"> <line x1="250" y1="88" x2="250" y2="96"/></g>
    <g transform="rotate(190,250,250)"> <line x1="250" y1="88" x2="250" y2="93"/></g>
    <g transform="rotate(200,250,250)"> <line x1="250" y1="88" x2="250" y2="93"/></g>
    <g transform="rotate(210,250,250)"> <line x1="250" y1="88" x2="250" y2="96"/></g>
    <g transform="rotate(220,250,250)"> <line x1="250" y1="88" x2="250" y2="93"/></g>
    <g transform="rotate(230,250,250)"> <line x1="250" y1="88" x2="250" y2="93"/></g>
    <g transform="rotate(240,250,250)"> <line x1="250" y1="88" x2="250" y2="96"/></g>
    <g transform="rotate(250,250,250)"> <line x1="250" y1="88" x2="250" y2="93"/></g>
    <g transform="rotate(260,250,250)"> <line x1="250" y1="88" x2="250" y2="93"/></g>
    <g transform="rotate(270,250,250)"> <line x1="250" y1="88" x2="250" y2="96"/></g>
    <g transform="rotate(280,250,250)"> <line x1="250" y1="88" x2="250" y2="93"/></g>
    <g transform="rotate(290,250,250)"> <line x1="250" y1="88" x2="250" y2="93"/></g>
    <g transform="rotate(300,250,250)"> <line x1="250" y1="88" x2="250" y2="96"/></g>
    <g transform="rotate(310,250,250)"> <line x1="250" y1="88" x2="250" y2="93"/></g>
    <g transform="rotate(320,250,250)"> <line x1="250" y1="88" x2="250" y2="93"/></g>
    <g transform="rotate(330,250,250)"> <line x1="250" y1="88" x2="250" y2="96"/></g>
    <g transform="rotate(340,250,250)"> <line x1="250" y1="88" x2="250" y2="93"/></g>
    <g transform="rotate(350,250,250)"> <line x1="250" y1="88" x2="250" y2="93"/></g>
  </g>

  <!-- ======== INNER CORE AREA ======== -->
  <!-- Core dark fill -->
  <circle cx="250" cy="250" r="140" fill="#020d1a" fill-opacity="0.92"/>
  <!-- Circuit pattern on core -->
  <circle cx="250" cy="250" r="140" fill="url(#circuit)" fill-opacity="0.4"/>

  <!-- Inner decorative ring lines -->
  <circle cx="250" cy="250" r="138" fill="none" stroke="#00c8ff" stroke-width="0.8" stroke-opacity="0.6" filter="url(#glow)"/>
  <circle cx="250" cy="250" r="130" fill="none" stroke="#00c8ff" stroke-width="0.4" stroke-opacity="0.3"/>

  <!-- HUD connector lines (top, right, bottom, left) -->
  <g stroke="#00c8ff" stroke-width="0.8" stroke-opacity="0.6" filter="url(#glow)">
    <!-- Top connector -->
    <line x1="250" y1="112" x2="250" y2="125"/>
    <line x1="245" y1="112" x2="255" y2="112"/>
    <!-- Bottom connector -->
    <line x1="250" y1="388" x2="250" y2="375"/>
    <line x1="245" y1="388" x2="255" y2="388"/>
    <!-- Left connector -->
    <line x1="112" y1="250" x2="125" y2="250"/>
    <line x1="112" y1="245" x2="112" y2="255"/>
    <!-- Right connector -->
    <line x1="388" y1="250" x2="375" y2="250"/>
    <line x1="388" y1="245" x2="388" y2="255"/>
  </g>

  <!-- Inner orbit ring (thin, rotating animation-ready) -->
  <circle cx="250" cy="250" r="115" fill="none" stroke="#00c8ff" stroke-width="0.6" stroke-opacity="0.35" 
          stroke-dasharray="8 4"/>

  <!-- Inner ring with small notches -->
  <circle cx="250" cy="250" r="100" fill="none" stroke="#00c8ff" stroke-width="0.5" stroke-opacity="0.4"/>

  <!-- Core inner glow -->
  <radialGradient id="coreGlow" cx="50%" cy="50%" r="50%">
    <stop offset="0%" stop-color="#00c8ff" stop-opacity="0.08"/>
    <stop offset="100%" stop-color="#00c8ff" stop-opacity="0"/>
  </radialGradient>
  <circle cx="250" cy="250" r="90" fill="url(#coreGlow)"/>

  <!-- ======== J.A.R.V.I.S. TEXT ======== -->
  <text 
    x="250" y="258" 
    text-anchor="middle" 
    dominant-baseline="middle"
    font-family="'Courier New', 'Lucida Console', monospace"
    font-size="30"
    font-weight="700"
    letter-spacing="6"
    fill="#ffffff"
    filter="url(#textGlow)"
  >J.A.R.V.I.S.</text>

  <!-- Thin lines above and below text -->
  <line x1="155" y1="236" x2="345" y2="236" stroke="#00c8ff" stroke-width="0.6" stroke-opacity="0.5"/>
  <line x1="175" y1="270" x2="325" y2="270" stroke="#00c8ff" stroke-width="0.4" stroke-opacity="0.35"/>

  <!-- Small HUD data labels -->
  <g font-family="'Courier New', monospace" fill="#00c8ff" font-size="7" letter-spacing="1" opacity="0.6">
    <!-- Top label -->
    <text x="250" y="200" text-anchor="middle">SYS.ONLINE</text>
    <!-- Bottom label -->
    <text x="250" y="308" text-anchor="middle">v7.3.2 // ACTIVE</text>
    <!-- Left label -->
    <text x="178" y="253" text-anchor="middle" transform="rotate(-90,178,253)">AI.CORE</text>
    <!-- Right label -->
    <text x="322" y="253" text-anchor="middle" transform="rotate(90,322,253)">STARK.TECH</text>
  </g>

  <!-- Small dot markers at cardinals inside core -->
  <g fill="#00c8ff" opacity="0.7">
    <circle cx="250" cy="215" r="1.5"/>
    <circle cx="250" cy="285" r="1.5"/>
    <circle cx="215" cy="250" r="1.5"/>
    <circle cx="285" cy="250" r="1.5"/>
  </g>

  <!-- ======== ANIMATION IDs for CSS ======== -->
  <!-- Rotating ring (outer) - id="ring-outer" -->
  <circle id="ring-outer" cx="250" cy="250" r="197" fill="none" 
          stroke="#00c8ff" stroke-width="1" stroke-opacity="0" 
          stroke-dasharray="20 300"/>

  <!-- Rotating ring (inner dashed) - id="ring-inner-dash" -->
  <circle id="ring-inner-dash" cx="250" cy="250" r="115" fill="none" 
          stroke="#00c8ff" stroke-width="0.8" stroke-opacity="0" 
          stroke-dasharray="5 8"/>

  <!-- Gold sweep indicator - id="gold-sweep" -->
  <g id="gold-sweep">
    <circle cx="250" cy="250" r="190" fill="none" 
            stroke="#f5a623" stroke-width="3" stroke-opacity="0" 
            stroke-dasharray="30 500"/>
  </g>

  <!-- Animation CSS -->
  <style>
    /* Outer ring slow clockwise spin */
    #ring-outer {
      transform-origin: 250px 250px;
      animation: spinCW 20s linear infinite;
    }
    /* Inner dashed ring slow counter-clockwise */
    #ring-inner-dash {
      transform-origin: 250px 250px;
      animation: spinCCW 15s linear infinite;
    }
    /* Gold sweep pulse */
    #gold-sweep circle {
      transform-origin: 250px 250px;
      animation: sweepCW 8s linear infinite;
    }
    /* The outer tick group slow spin */
    #outerTicks {
      transform-origin: 250px 250px;
      animation: spinCW 60s linear infinite;
    }
    @keyframes spinCW {
      from { transform: rotate(0deg); }
      to   { transform: rotate(360deg); }
    }
    @keyframes spinCCW {
      from { transform: rotate(0deg); }
      to   { transform: rotate(-360deg); }
    }
    @keyframes sweepCW {
      from { transform: rotate(0deg); }
      to   { transform: rotate(360deg); }
    }
    /* Pulse on the core glow -->*/
    text {
      animation: textPulse 3s ease-in-out infinite;
    }
    @keyframes textPulse {
      0%, 100% { opacity: 1; }
      50% { opacity: 0.8; }
    }
  </style>
</svg>
